<svg width="490" height="388" viewBox="0 0 490 388" fill="none" xmlns="http://www.w3.org/2000/svg">
<path d="M420 2.5C457.279 2.5 487.5 32.7208 487.5 70V385.5H70C32.7208 385.5 2.5 355.279 2.5 318V2.5H420Z" fill="#EBEBEB" stroke="#2E3532" stroke-width="5"/>
<path d="M293 273H360V160C413.019 160 456 206.563 456 264C456 320.989 413.689 367.272 361.241 367.992L360 368H34V273H179V159L293 273Z" fill="#2E3532"/>
<path d="M130 228C76.9808 228 34.0002 181.437 34 124C34 67.0113 76.3115 20.7278 128.759 20.0078L130 20L456 20V115L310 115L310 228L197 115L130 115V228Z" fill="#2E3532"/>
</svg>
